<svg width="121" height="46" viewBox="0 0 121 46" fill="none" xmlns="http://www.w3.org/2000/svg">
<g clip-path="url(#clip0_302_27)">
<path d="M62.47 15.247L68.2267 14.8749C68.358 15.8161 68.5988 16.5166 68.9928 17.02C69.6275 17.808 70.5031 18.202 71.6632 18.202C72.5168 18.202 73.1954 18.005 73.655 17.5891C74.0928 17.2608 74.3555 16.7354 74.3555 16.1882C74.3555 15.6629 74.1147 15.1595 73.6988 14.8311C73.261 14.4371 72.2323 14.0431 70.6125 13.6929C67.964 13.1019 66.0597 12.3139 64.9434 11.3071C63.8271 10.3659 63.1923 8.98689 63.2361 7.52035C63.2361 6.51348 63.5425 5.5066 64.1116 4.67484C64.7683 3.73363 65.6657 2.98942 66.7382 2.57353C67.8983 2.0701 69.5181 1.80743 71.5537 1.80743C74.049 1.80743 75.9533 2.26709 77.2666 3.2083C78.58 4.12762 79.368 5.61605 79.6087 7.65168L73.9177 7.98001C73.7645 7.10447 73.458 6.4697 72.9546 6.05382C72.4512 5.63793 71.7945 5.44094 70.9409 5.44094C70.2404 5.44094 69.7151 5.59416 69.3649 5.87871C69.0365 6.14137 68.8177 6.53537 68.8395 6.97314C68.8395 7.30147 69.0147 7.60791 69.2773 7.8049C69.5619 8.06757 70.2404 8.30834 71.313 8.52722C73.9615 9.09633 75.8439 9.66543 77.004 10.2564C78.1641 10.8474 78.9958 11.5697 79.4993 12.4234C80.0246 13.2989 80.2873 14.3058 80.2654 15.3346C80.2654 16.5603 79.9152 17.7861 79.2147 18.8149C78.4924 19.8874 77.4855 20.7192 76.3036 21.2226C75.0559 21.7698 73.4799 22.0544 71.5975 22.0544C68.2704 22.0544 65.9721 21.4196 64.6807 20.1282C63.3893 18.8367 62.6232 17.217 62.47 15.247ZM1.37898 21.726V2.15765H11.4696C13.3301 2.15765 14.7748 2.31087 15.7598 2.6392C16.7229 2.94564 17.5765 3.58041 18.1456 4.43406C18.7804 5.37527 19.0868 6.4697 19.0649 7.6079C19.1306 9.5341 18.1456 11.3727 16.4602 12.3358C15.8035 12.7079 15.0812 12.9706 14.337 13.1019C14.8842 13.2552 15.4314 13.5178 15.913 13.8243C16.2851 14.1307 16.5915 14.4809 16.8761 14.853C17.2044 15.2251 17.489 15.641 17.7297 16.0788L20.6628 21.7479H13.7898L10.5503 15.7286C10.1344 14.9625 9.78419 14.459 9.45586 14.2183C9.01809 13.9118 8.49277 13.7586 7.96744 13.7586H7.44211V21.7041H1.37898V21.726ZM7.44211 10.0813H10.0031C10.5503 10.0375 11.0756 9.94998 11.6009 9.81865C11.9949 9.75299 12.3452 9.5341 12.5859 9.20577C13.1769 8.41778 13.0894 7.30147 12.367 6.62292C11.973 6.29459 11.2069 6.11948 10.1125 6.11948H7.44211V10.0813ZM0 38.4927L5.75669 38.1206C5.88802 39.0618 6.1288 39.7622 6.52279 40.2657C7.13567 41.0536 8.0331 41.4695 9.1932 41.4695C10.0469 41.4695 10.7254 41.2725 11.1851 40.8566C11.6228 40.5064 11.8855 40.003 11.8855 39.4558C11.8855 38.9304 11.6447 38.427 11.2288 38.0987C10.7911 37.7047 9.7623 37.3107 8.12066 36.9605C5.47214 36.3695 3.56784 35.5815 2.45152 34.5746C1.3352 33.6334 0.700434 32.2544 0.744211 30.7879C0.744211 29.781 1.05065 28.7742 1.61975 27.9424C2.27641 27.0012 3.17384 26.257 4.24638 25.8411C5.40648 25.3376 7.02623 25.075 9.06187 25.075C11.5572 25.075 13.4615 25.5346 14.7748 26.4759C16.0881 27.4171 16.8542 28.8836 17.095 30.9192L11.4039 31.2476C11.2507 30.372 10.9443 29.7373 10.4408 29.3214C9.9593 28.9055 9.28075 28.7085 8.4271 28.7304C7.72666 28.7304 7.20134 28.8836 6.85112 29.19C6.5009 29.4527 6.30391 29.8467 6.3258 30.2845C6.3258 30.6128 6.5009 30.9192 6.76357 31.1162C7.04812 31.3789 7.72667 31.6197 8.7992 31.8386C11.4477 32.4077 13.3301 32.9768 14.4902 33.5677C15.6503 34.1587 16.4821 34.8811 16.9855 35.7347C17.5109 36.6103 17.7735 37.6171 17.7735 38.624C17.7735 39.8498 17.4014 41.0536 16.7229 42.0824C16.0005 43.1549 14.9937 43.9867 13.8117 44.4901C12.564 45.0374 10.9881 45.3219 9.10564 45.3219C5.77858 45.3219 3.48028 44.6871 2.18886 43.3957C0.897431 42.0824 0.175109 40.4626 0 38.4927H0Z" fill="black"/>
<path d="M29.1118 36.9605L34.4088 38.5584C34.1243 39.8936 33.5333 41.1631 32.7234 42.2794C31.9792 43.2644 30.9942 44.0305 29.8779 44.5339C28.7397 45.0374 27.2951 45.3 25.544 45.3C23.4208 45.3 21.6697 44.9936 20.3345 44.3807C18.9774 43.7678 17.8173 42.6734 16.8323 41.1193C15.8473 39.5652 15.3658 37.5734 15.3658 35.1438C15.3658 31.9042 16.2194 29.4089 17.9486 27.6798C19.6778 25.9506 22.1075 25.075 25.2594 25.075C27.7328 25.075 29.659 25.5784 31.0818 26.5634C32.4826 27.5703 33.5333 29.1025 34.2337 31.16L28.8929 32.342C28.7616 31.8824 28.5646 31.4227 28.3019 31.0287C27.9736 30.569 27.5577 30.2188 27.0543 29.9562C26.5508 29.6935 25.9817 29.5841 25.4126 29.5841C24.0337 29.5841 22.983 30.1313 22.2607 31.2476C21.7135 32.0575 21.4289 33.3489 21.4289 35.1C21.4289 37.2669 21.7572 38.7554 22.4139 39.5652C23.0706 40.3751 23.9899 40.7691 25.1938 40.7691C26.3538 40.7691 27.2294 40.4408 27.8204 39.806C28.4114 39.1275 28.8491 38.1863 29.1118 36.9605ZM41.4788 25.4033H47.5201V32.2545H54.1304V25.4033H60.2155V44.9717H54.1304V37.0481H47.5201V44.9717H41.4788V25.4033V25.4033Z" fill="black"/>
<path d="M59.3837 35.1875C59.3837 31.9918 60.2811 29.4965 62.0541 27.7235C63.827 25.9505 66.3223 25.0531 69.4962 25.0531C72.7576 25.0531 75.2529 25.9286 77.0259 27.6797C78.7988 29.4308 79.6744 31.8823 79.6744 35.0343C79.6744 37.3326 79.2804 39.1931 78.5143 40.6596C77.7701 42.1043 76.61 43.2863 75.1872 44.0743C73.7207 44.8841 71.9039 45.3 69.737 45.3C67.5262 45.3 65.7095 44.9498 64.2648 44.2494C62.7764 43.5052 61.5506 42.3451 60.7408 40.9223C59.8433 39.3901 59.3837 37.4858 59.3837 35.1875ZM65.4249 35.2094C65.4249 37.1794 65.797 38.6021 66.5193 39.4777C67.2417 40.3313 68.2485 40.7691 69.5181 40.7691C70.8095 40.7691 71.8164 40.3532 72.5387 39.4996C73.261 38.6459 73.6112 37.1356 73.6112 34.9467C73.6112 33.1081 73.2391 31.751 72.4949 30.9192C71.7507 30.0656 70.7438 29.6497 69.4743 29.6497C68.358 29.6059 67.2854 30.0875 66.5412 30.9411C65.797 31.7948 65.4249 33.2175 65.4249 35.2094V35.2094ZM85.8688 35.1875C85.8688 31.9918 86.7663 29.4965 88.5392 27.7235C90.3122 25.9505 92.8075 25.0531 95.9814 25.0531C99.2428 25.0531 101.76 25.9286 103.511 27.6797C105.262 29.4308 106.16 31.8823 106.16 35.0343C106.16 37.3326 105.766 39.1931 104.999 40.6596C104.255 42.1043 103.095 43.2863 101.672 44.0743C100.206 44.8841 98.3891 45.3 96.2221 45.3C94.0114 45.3 92.1946 44.9498 90.75 44.2494C89.2616 43.5052 88.0358 42.3451 87.2259 40.9223C86.3285 39.3901 85.8688 37.4858 85.8688 35.1875V35.1875ZM91.9101 35.2094C91.9101 37.1794 92.2822 38.6021 93.0045 39.4777C93.7268 40.3313 94.7337 40.7691 96.0032 40.7691C97.2947 40.7691 98.3015 40.3532 99.0239 39.4996C99.7462 38.6459 100.096 37.1356 100.096 34.9467C100.096 33.1081 99.7243 31.751 98.9801 30.9192C98.2359 30.0656 97.229 29.6497 95.9595 29.6497C94.8432 29.6059 93.7487 30.0875 93.0264 30.9411C92.2822 31.7948 91.9101 33.2175 91.9101 35.2094V35.2094Z" fill="black"/>
<path d="M105.525 25.4033H111.566V40.1562H121V44.9717H105.503V25.4033H105.525Z" fill="black"/>
<path d="M98.866 24.274C104.948 19.6906 106.824 11.9209 103.055 6.91991C99.2866 1.91895 91.3008 1.58051 85.2186 6.16398C79.1364 10.7474 77.2608 18.5171 81.0294 23.5181C84.7981 28.5191 92.7838 28.8575 98.866 24.274Z" stroke="black" stroke-width="4" stroke-miterlimit="10"/>
<path d="M85.8907 13.7805L88.0796 12.2483L90.7719 16.0788C91.2315 16.6917 91.5818 17.3483 91.8444 18.0706C91.9976 18.6179 91.9539 19.2089 91.735 19.7342C91.4504 20.3908 90.9908 20.9381 90.3779 21.332C89.6556 21.8355 89.0427 22.12 88.5174 22.2076C88.0139 22.2951 87.4886 22.2076 87.007 21.9887C86.4817 21.726 86.0221 21.3539 85.6718 20.8724L87.5543 19.1213C87.7075 19.3621 87.9045 19.581 88.1234 19.7561C88.2766 19.8655 88.4517 19.9312 88.6487 19.9312C88.8019 19.9312 88.9551 19.8655 89.0646 19.778C89.2835 19.6466 89.4367 19.384 89.4148 19.1213C89.3491 18.7492 89.1959 18.3771 88.9551 18.0925L85.8907 13.7805V13.7805ZM92.4573 16.2101L94.4492 14.6341C94.668 14.8968 94.9526 15.0938 95.259 15.2032C95.6968 15.3346 96.1565 15.247 96.5286 14.9625C96.7912 14.7874 97.0101 14.5466 97.0977 14.2402C97.229 13.8462 97.0101 13.4084 96.6161 13.2771C96.5505 13.2552 96.4848 13.2333 96.4191 13.2333C96.1565 13.2114 95.6968 13.3208 95.0183 13.6054C93.902 14.065 93.0264 14.2401 92.3697 14.1745C91.735 14.1088 91.144 13.7805 90.7938 13.2333C90.5311 12.8612 90.3998 12.4234 90.3779 11.9856C90.3779 11.4822 90.5092 10.9788 90.7938 10.5629C91.2097 9.97188 91.7131 9.46844 92.326 9.07445C93.2453 8.43968 94.0552 8.13324 94.7556 8.13324C95.456 8.13324 96.1127 8.46157 96.7256 9.14011L94.7556 10.6942C94.3616 10.1908 93.6174 10.0813 93.114 10.4753L93.0483 10.541C92.8294 10.6723 92.6762 10.8693 92.5886 11.1101C92.523 11.2852 92.5667 11.4822 92.6762 11.6354C92.7637 11.7449 92.8951 11.8324 93.0483 11.8324C93.2234 11.8543 93.5298 11.7667 93.9676 11.5697C95.062 11.1101 95.8938 10.8474 96.4629 10.7599C96.9445 10.6723 97.4479 10.7161 97.9076 10.9131C98.3234 11.0882 98.6737 11.3946 98.9144 11.7667C99.2209 12.2045 99.396 12.7298 99.4179 13.2771C99.4398 13.8462 99.2865 14.3934 98.9801 14.8749C98.5861 15.4659 98.0827 15.9693 97.4917 16.3633C96.2878 17.1951 95.3028 17.5453 94.5148 17.414C93.6612 17.2827 92.9607 16.8449 92.4573 16.2101V16.2101Z" fill="black"/>
</g>
<defs>
<clipPath id="clip0_302_27">
<rect width="121" height="44.9372" fill="white" transform="translate(0 0.362793)"/>
</clipPath>
</defs>
</svg>
